<svg width="128" height="128" viewBox="0 0 128 128" fill="none" xmlns="http://www.w3.org/2000/svg">
<path d="M111.071 26H15.9286C11.5497 26 8 29.8504 8 34.6V103.4C8 108.15 11.5497 112 15.9286 112H111.071C115.45 112 119 108.15 119 103.4V34.6C119 29.8504 115.45 26 111.071 26Z" fill="url(#paint0_linear_3_3)"/>
<rect x="8" y="18" width="111" height="87" rx="8" fill="url(#paint1_linear_3_3)"/>
<rect x="16" y="26" width="95" height="71" rx="2" fill="url(#paint2_linear_3_3)"/>
<rect x="80" y="30" width="27" height="19" rx="1" fill="#6EADFF"/>
<rect x="20" y="74" width="27" height="19" rx="1" fill="#6EADFF"/>
<path d="M106 74C106.552 74 107 74.4477 107 75V92C107 92.5523 106.552 93 106 93H81C80.4477 93 80 92.5523 80 92V81.5918L80.8008 82.2139C81.3407 82.6327 81.9302 82.8013 82.5693 82.7207C83.2087 82.64 83.7383 82.33 84.1572 81.79L86.9854 78.1445C87.4042 77.6046 87.5621 77.0063 87.459 76.3496C87.3558 75.6928 87.0566 75.1722 86.5615 74.7881L85.5459 74H106Z" fill="#93C2FF"/>
<path d="M77 79.2646V92C77 92.5523 76.5523 93 76 93H51C50.4477 93 50 92.5523 50 92V75C50 74.4477 50.4477 74 51 74H70.2139L77 79.2646Z" fill="#84BAFF"/>
<path d="M106 52C106.552 52 107 52.4477 107 53V70C107 70.5523 106.552 71 106 71H81.6787L80 69.6973V53C80 52.4477 80.4477 52 81 52H106Z" fill="#84BAFF"/>
<path d="M76 52C76.5523 52 77 52.4477 77 53V67.3691L62.3936 56.0381L56.6328 63.4639L66.3467 71H51C50.4477 71 50 70.5523 50 70V59.9551C50.4285 59.9549 50.8644 59.93 51.3076 59.874C53.3055 59.6218 54.9157 58.7078 56.1377 57.1328C57.3132 55.6176 57.8049 53.9065 57.6162 52H76Z" fill="#6EADFF"/>
<path d="M76 30C76.5523 30 77 30.4477 77 31V48C77 48.5523 76.5523 49 76 49H56.6777C56.2247 48.2228 55.6171 47.5363 54.8516 46.9424C53.4112 45.8249 51.7939 45.3252 50 45.4404V31C50 30.4477 50.4477 30 51 30H76Z" fill="#5CA3FF"/>
<path d="M46 30C46.5523 30 47 30.4477 47 31V45.2012C46.5265 44.9987 46.0994 44.706 45.7207 44.3193C44.7654 43.3439 44.222 42.3368 44.0908 41.2979C42.7885 42.5583 41.8085 44.1231 41.1514 45.9922C40.7953 47.0051 40.5701 48.008 40.4736 49H21C20.4477 49 20 48.5523 20 48V31C20 30.4477 20.4477 30 21 30H46Z" fill="#3F92FF"/>
<path d="M40.583 52C41.0024 54.4061 42.2006 56.3764 44.1787 57.9111C45.0723 58.6044 46.0132 59.12 47 59.4609V70C47 70.5523 46.5523 71 46 71H21C20.4477 71 20 70.5523 20 70V53C20 52.4477 20.4477 52 21 52H40.583Z" fill="#5CA3FF"/>
<defs>
<linearGradient id="paint0_linear_3_3" x1="8" y1="105.566" x2="118.99" y2="105.06" gradientUnits="userSpaceOnUse">
<stop stop-color="#2C2C2C"/>
<stop offset="0.0995437" stop-color="#222222"/>
<stop offset="0.895039" stop-color="#222222"/>
<stop offset="1" stop-color="#2C2C2C"/>
</linearGradient>
<linearGradient id="paint1_linear_3_3" x1="120.5" y1="18" x2="8.00001" y2="105" gradientUnits="userSpaceOnUse">
<stop stop-color="#2E2E2E"/>
<stop offset="1" stop-color="#0A0A0A"/>
</linearGradient>
<linearGradient id="paint2_linear_3_3" x1="63.5" y1="26" x2="63.5" y2="97" gradientUnits="userSpaceOnUse">
<stop stop-color="#F0F0F0"/>
<stop offset="1" stop-color="#D5E1FF"/>
</linearGradient>
</defs>
</svg>
